<svg width="50" height="27" viewBox="0 0 50 27" fill="none" xmlns="http://www.w3.org/2000/svg">
<path fill-rule="evenodd" clip-rule="evenodd" d="M8.86209 0.137887C5.83886 0.846441 3.87993 3.81733 3.87272 7.70537C3.87087 8.69411 3.78327 9.20792 3.52718 9.73408C2.98043 10.8573 1.63001 11.294 0.50043 10.7131L0 10.456L0.265822 11.0886C1.00841 12.8563 3.31137 14.0251 5.24613 13.6163C6.26428 13.401 7.28176 12.6604 7.90771 11.679C8.36686 10.9591 8.58133 10.3732 9.34087 7.76344C10.0121 5.45705 12.0979 4.43944 13.4717 5.74808C13.7288 5.99306 13.9392 6.25305 13.9392 6.32581C13.9392 6.39857 13.6425 6.60849 13.2799 6.79256C11.5312 7.67967 9.54762 9.86057 8.64645 11.8871C6.20319 17.3805 8.92704 23.9562 14.5944 26.2461C17.6995 27.5008 21.7701 27.096 24.559 25.2552C26.1625 24.1967 27.738 22.3983 28.464 20.7971C28.6258 20.4405 28.8033 20.149 28.8585 20.1493C28.9137 20.1496 29.2064 20.6257 29.5088 21.2075C31.8101 25.6335 36.9626 27.9075 41.8647 26.6609C43.4316 26.2625 44.7433 25.5891 46.0818 24.4964C49.2062 21.9459 50.6712 17.6246 49.7063 13.806C48.9113 10.6604 47.3897 8.62502 44.3779 6.67808C44.0822 6.48684 44.1037 6.43711 44.7198 5.88542C45.3684 5.30436 45.3645 5.26948 44.6498 5.25547C44.6036 5.25463 44.3679 5.30002 44.1257 5.35659C43.707 5.45421 43.6803 5.42017 43.5786 4.65705C43.4692 3.83752 42.9437 2.95592 42.2956 2.50452C41.9379 2.25537 41.9374 2.25688 42.1971 2.7565C42.7949 3.90611 42.5913 5.75926 41.8764 5.67466C41.6944 5.65313 41.0473 5.56118 40.4387 5.4704C39.2808 5.29769 37.2653 5.45254 36.0072 5.81116C33.2894 6.5858 30.5066 8.95494 29.3371 11.4899C29.1302 11.9385 28.9221 12.3055 28.875 12.3055C28.8278 12.3055 28.6197 11.9385 28.4128 11.4899C27.518 9.55035 25.6302 7.61375 23.6819 6.63686C21.9337 5.76027 20.6326 5.46356 18.5366 5.46356C16.6486 5.46356 16.6243 5.45872 16.6243 5.07674C16.6243 3.58604 15.3001 1.64478 13.7508 0.864131C12.2134 0.0894935 10.2887 -0.196532 8.86209 0.137887ZM43.1574 9.17655C44.1822 11.2076 46.1348 13.4894 47.7124 14.4997L48.5096 15.0102V16.2621C48.5096 19.3663 46.9058 22.297 44.2464 24.0524C40.6544 26.4232 35.7689 25.9502 32.6005 22.9249C30.6931 21.1035 29.712 18.7983 29.7164 16.1473C29.7198 14.0149 29.7008 14.046 31.1986 13.7277C35.7471 12.7612 40.1649 10.6754 42.1198 8.57145C42.3436 8.33065 42.5502 8.13357 42.5789 8.13357C42.6076 8.13357 42.8679 8.60299 43.1574 9.17655ZM15.5671 10.4698L15.7141 11.2208L16.7985 11.1373C17.3949 11.0914 18.7188 11.0644 19.7405 11.0773C22.7283 11.1148 25.742 12.0365 27.3242 13.3965L27.9417 13.9273L28.0053 15.6612C28.1173 18.7165 27.2329 20.9496 25.1219 22.9406C21.0622 26.7698 14.8241 26.3821 11.3164 22.0825C9.90977 20.3584 9.23968 18.433 9.24136 16.1196C9.24287 13.7521 9.61727 13.0851 11.3876 12.2965C12.0194 12.0149 13.9877 11.4878 14.4581 11.4739C14.5127 11.4724 14.6952 11.0182 14.8639 10.4645C15.2029 9.35076 15.3481 9.35193 15.5671 10.4698ZM14.6944 14.0068C14.2232 14.2724 14.1126 14.4794 14.1096 15.1006C14.1064 15.786 14.6145 16.3105 15.2818 16.3105C16.404 16.3105 16.901 14.8468 16.0143 14.1533C15.5187 13.7656 15.1873 13.7288 14.6944 14.0068ZM21.5439 13.9754C20.3604 14.4495 20.7863 16.3105 22.0784 16.3105C22.4867 16.3105 22.7369 16.1897 22.9891 15.8708C23.4506 15.2875 23.4285 14.7175 22.925 14.217C22.4942 13.7885 22.1574 13.7296 21.5439 13.9754ZM35.1371 13.9754C33.9457 14.4527 34.3807 16.3105 35.6838 16.3105C36.8471 16.3105 37.3514 15.0454 36.5182 14.217C36.0874 13.7885 35.7506 13.7296 35.1371 13.9754ZM41.7241 14.1983C40.8729 15.0447 41.3617 16.3105 42.5398 16.3105C42.9614 16.3105 43.2081 16.193 43.4628 15.8708C44.1123 15.0499 43.734 14.0733 42.689 13.8726C42.2581 13.7898 42.0714 13.8529 41.7241 14.1983ZM13.3623 19.5228C13.6234 20.3612 14.2823 21.4347 14.8897 22.0118C15.9569 23.0254 16.854 23.3945 18.4124 23.4608C19.6158 23.512 19.9043 23.4641 20.8033 23.0628C22.2287 22.4268 23.4397 21.0488 23.9141 19.5228L24.0309 19.1474H18.6381H13.2453L13.3623 19.5228ZM33.8316 19.5228C34.319 21.1479 35.8196 22.7576 37.3058 23.2498C38.3682 23.6016 39.8836 23.5906 40.9966 23.223C42.4166 22.7541 43.9255 21.1107 44.3939 19.5228L44.5046 19.1474H39.1118H33.719L33.8316 19.5228Z" fill="#4CD4E2"/>
</svg>
