<svg width="45" height="43" viewBox="0 0 45 43" fill="none" xmlns="http://www.w3.org/2000/svg">
<path fill-rule="evenodd" clip-rule="evenodd" d="M40.9308 6.01088L41.3409 8.2966C44.1166 16.0811 39.1841 16.1608 37.236 12.0023C35.6101 11.3648 34.5701 11.7849 34.3101 13.6251L36.3132 22.7137L36.2363 30.4438C37.43 28.9296 38.3821 27.1655 39.0046 25.1624C39.5026 23.5613 41.2164 22.6629 42.8349 23.1556C44.4534 23.6482 45.3616 25.3435 44.8636 26.9446C43.2011 32.3057 39.8102 36.4207 35.5735 39.1484C31.8237 41.5645 27.4076 42.8794 22.9547 42.9917C18.4946 43.1076 13.9832 42.01 10.0504 39.6084C5.76603 36.9894 2.19573 32.8382 0.16707 27.0351C-0.382207 25.4558 0.467341 23.7315 2.06391 23.1882C3.66047 22.6448 5.40351 23.4852 5.95279 25.0646C6.5277 26.7091 7.26007 28.1726 8.11694 29.4621L8.19018 23.0179C8.34398 21.4639 8.90058 19.9643 10.0394 18.5515H6.75473C3.86187 18.3342 3.53963 14.9654 6.75473 14.288H15.5395C15.664 16.1173 16.466 17.7655 17.6963 18.9862C19.0402 20.3156 20.8968 21.1379 22.9474 21.1379C24.9981 21.1379 26.8546 20.3156 28.1985 18.9862C29.5424 17.6568 30.3736 15.8203 30.3736 13.7917C30.3736 11.7632 29.5424 9.92667 28.1985 8.59726C27.2794 7.68804 26.1222 7.0179 24.826 6.68102C26.0161 4.5076 28.0081 2.56238 30.9779 0.885222C33.8744 -0.21598 37.1664 -0.458679 41.2933 1.13879C42.9228 1.86326 43.8419 2.59136 43.56 3.31583C43.289 4.01858 42.7763 4.00046 42.2124 4.15623C41.3226 4.40255 40.8282 4.96402 40.9308 6.01088ZM33.2079 33.3852C31.3514 20.8952 13.3754 20.7721 11.2551 33.0012C11.896 33.5446 12.5697 34.0263 13.2655 34.4538C16.151 36.2179 19.487 37.0184 22.8083 36.9351C26.1369 36.8518 29.4326 35.8665 32.2339 34.0625C32.5671 33.8488 32.893 33.6242 33.2079 33.3852ZM17.3338 14.2844H23.5333C23.277 12.1762 23.4308 10.1802 24.0863 8.32558C25.1848 8.55017 26.1662 9.0899 26.9315 9.84335C27.9495 10.8504 28.583 12.245 28.583 13.7845C28.583 15.324 27.9532 16.7186 26.9315 17.7256C25.9135 18.7327 24.5037 19.3593 22.9474 19.3593C21.3911 19.3593 19.9813 18.7363 18.9633 17.7256C18.0552 16.8309 17.4547 15.6283 17.3338 14.2844ZM38.4334 5.68125C38.8435 5.68125 39.1804 6.0145 39.1804 6.42021V7.13744C39.1804 7.54315 38.8435 7.8764 38.4334 7.8764C38.0232 7.8764 37.6864 7.54315 37.6864 7.13744V6.42021C37.6864 6.01088 38.0196 5.68125 38.4334 5.68125Z" fill="white"/>
</svg>
